<svg width="400" height="400" xmlns="http://www.w3.org/2000/svg">
 <!-- Created with Method Draw - http://github.com/duopixel/Method-Draw/ -->

 <g>
  <title>background</title>
  <rect fill="#f7f7f7" id="canvas_background" height="402" width="402" y="-48" x="-106"  rx="20" ry="20"/>
  <g display="none" overflow="visible" y="0" x="0" height="100%" width="100%" id="canvasGrid">
   <rect fill="url(#gridpattern)" stroke-width="0" y="-47" x="-105" height="100%" width="100%"/>
  </g>
 </g>
 <g>
  <title>Layer 1</title>
  <ellipse stroke="#000000" transform="rotate(90,-99.1,393.9)" ry="83.8" rx="83.8" id="svg_1" cy="137.5" cx="224.1" stroke-width="15" fill="#f7f7f7"/>
  <line transform="rotate(90 293.16049194335943,206.54692077636722) " stroke="#000" stroke-linecap="null" stroke-linejoin="null" id="svg_7" y2="122.671981" x2="377.035445" y1="290.421861" x1="209.285565" fill-opacity="null" stroke-opacity="null" stroke-width="15" fill="none"/>
  <line stroke="#d6d6bc" stroke-linecap="null" stroke-linejoin="null" id="svg_10" y2="402.576361" x2="198.618905" y1="0.422139" x1="198.618905" stroke-width="7" fill="none"/>
  <line stroke="#000" stroke-linecap="null" stroke-linejoin="null" id="svg_22" y2="123.338644" x2="377.035445" y1="291.088524" x1="209.285565" fill-opacity="null" stroke-opacity="null" stroke-width="15" fill="none"/>
  <ellipse stroke="#000000" transform="rotate(90,303.2,191.2)" ry="83.8" rx="83.8" id="svg_23" cy="134" cx="626.3" stroke-width="15" fill="#f7f7f7"/>
  <ellipse stroke="#000000" transform="rotate(90,96.6,592.9)" ry="83.8" rx="83.8" id="svg_24" cy="535.6" cx="419.8" stroke-width="15" fill="#f7f7f7"/>
  <line transform="rotate(90 198.6189117431641,103.39028167724611) " stroke="#d6d6bc" stroke-linecap="null" stroke-linejoin="null" id="svg_25" y2="304.467402" x2="198.618905" y1="-97.68682" x1="198.618905" stroke-width="7" fill="none"/>
  <line transform="rotate(90 198.61891174316403,304.0602111816407) " stroke="#d6d6bc" stroke-linecap="null" stroke-linejoin="null" id="svg_26" y2="505.137327" x2="198.618905" y1="102.983105" x1="198.618905" stroke-width="7" fill="none"/>
  <line transform="rotate(90 100.49471282958984,6.760147571563729) " stroke="#000" stroke-linecap="null" stroke-linejoin="null" id="svg_27" y2="-77.114793" x2="184.369665" y1="90.635087" x1="16.619785" fill-opacity="null" stroke-opacity="null" stroke-width="15" fill="none"/>
  <line stroke="#000" stroke-linecap="null" stroke-linejoin="null" id="svg_28" y2="-76.448129" x2="184.369665" y1="91.301751" x1="16.619785" fill-opacity="null" stroke-opacity="null" stroke-width="15" fill="none"/>
  <line transform="rotate(90 296.4938049316406,406.54602050781256) " stroke="#000" stroke-linecap="null" stroke-linejoin="null" id="svg_29" y2="322.671065" x2="380.368763" y1="490.420945" x1="212.618883" fill-opacity="null" stroke-opacity="null" stroke-width="15" fill="none"/>
  <line stroke="#000" stroke-linecap="null" stroke-linejoin="null" id="svg_30" y2="323.337729" x2="380.368763" y1="491.087609" x1="212.618883" fill-opacity="null" stroke-opacity="null" stroke-width="15" fill="none"/>
 </g>
</svg>