<svg width="400" height="400" xmlns="http://www.w3.org/2000/svg">
 <!-- Created with Method Draw - http://github.com/duopixel/Method-Draw/ -->
 <g>
  <title>background</title>
  <rect x="-1" y="-1" width="402" height="402" id="canvas_background" fill="none"/>
  <g id="canvasGrid" display="none">
   <rect id="svg_2" width="100%" height="100%" x="0" y="0" stroke-width="0" fill="url(#gridpattern)"/>
  </g>
 </g>
 <g>
  <title>Layer 1</title>
  <rect rx="45" id="svg_31" height="398" width="398" y="1" x="1" fill-opacity="null" stroke-opacity="null" stroke-width="2" stroke="#000000" fill="#f7f7f7"/>
  <line fill="none" stroke-width="7" x1="300" y1="2" x2="300" y2="398" id="svg_5" stroke-linejoin="null" stroke-linecap="null" stroke="#b3b3b3"/>
  <line fill="none" stroke-width="7" x1="100" y1="2" x2="100" y2="398" id="svg_10" stroke-linejoin="null" stroke-linecap="null" stroke="#b3b3b3"/>
  <line fill="none" stroke-width="7" x1="2" y1="100" x2="398" y2="100" id="svg_10" stroke-linejoin="null" stroke-linecap="null" stroke="#b3b3b3"/>
  <line fill="none" stroke-width="7" x1="2" y1="300" x2="398" y2="300" id="svg_10" stroke-linejoin="null" stroke-linecap="null" stroke="#b3b3b3"/>
  <line fill="none" stroke-width="15" stroke-opacity="null" fill-opacity="null" x1="115.618883" y1="484.395302" x2="283.368763" y2="316.645422" id="svg_1" stroke-linejoin="null" stroke-linecap="null" stroke="#000"/>
  <line fill="none" stroke-width="15" stroke-opacity="null" fill-opacity="null" x1="115.618883" y1="283.372917" x2="283.368763" y2="115.623037" id="svg_6" stroke-linejoin="null" stroke-linecap="null" stroke="#000"/>
  <line fill="none" stroke-width="15" stroke-opacity="null" fill-opacity="null" x1="-83.945646" y1="283.372917" x2="83.804234" y2="115.623037" id="svg_21" stroke-linejoin="null" stroke-linecap="null" stroke="#000"/>
  <ellipse fill="#f7f7f7" stroke-width="15" cx="193.4" cy="-2.6" id="svg_28" rx="83.8" ry="83.8" transform="rotate(90,196.4,0.6)" stroke="#000000"/>
  <ellipse fill="#f7f7f7" stroke-width="15" cx="411.8" cy="209.5" id="svg_3" rx="83.8" ry="83.8" transform="rotate(90,411.8,199.5)" stroke="#000000"/>
  <line fill="none" stroke-width="15" stroke-opacity="null" fill-opacity="null" x1="115.618883" y1="483.728638" x2="283.368763" y2="315.978758" id="svg_4" stroke-linejoin="null" stroke-linecap="null" stroke="#000" transform="rotate(90 199.49383544921872,399.8536987304688) "/>
  <line fill="none" stroke-width="15" stroke-opacity="null" fill-opacity="null" x1="115.618883" y1="282.706253" x2="283.368763" y2="114.956373" id="svg_7" stroke-linejoin="null" stroke-linecap="null" stroke="#000" transform="rotate(90 199.49383544921875,198.8313140869141) "/>
  <line fill="none" stroke-width="15" stroke-opacity="null" fill-opacity="null" x1="-83.945646" y1="282.706253" x2="83.804234" y2="114.956373" id="svg_22" stroke-linejoin="null" stroke-linecap="null" stroke="#000" transform="rotate(90 -0.07069396972659094,198.8313140869141) "/>
  <rect rx="45" id="svg_8" height="398" width="398" y="1" x="1" stroke-opacity="null" stroke-width="2" stroke="#000000" fill="none"/>
 </g>
</svg>